<svg width="30" height="30" viewBox="0 0 30 30" fill="none" xmlns="http://www.w3.org/2000/svg">
<path fill-rule="evenodd" clip-rule="evenodd" d="M25.7072 5.7071C26.0976 5.31658 26.0976 4.68343 25.7072 4.29291C25.3166 3.90236 24.6834 3.90236 24.2928 4.29291L15 13.5858L5.7071 4.29291C5.31658 3.90236 4.68343 3.90236 4.29291 4.29291C3.90236 4.68343 3.90236 5.31658 4.29291 5.7071L13.5858 15L4.29291 24.2928C3.90236 24.6834 3.90236 25.3166 4.29291 25.7072C4.68343 26.0976 5.31658 26.0976 5.7071 25.7072L15 16.4142L24.2928 25.7072C24.6834 26.0976 25.3166 26.0976 25.7072 25.7072C26.0976 25.3166 26.0976 24.6834 25.7072 24.2928L16.4142 15L25.7072 5.7071Z" fill="#D9D9D9"/>
</svg>
