<svg width="24" height="24" viewBox="0 0 24 24" fill="none" xmlns="http://www.w3.org/2000/svg">
<path d="M12 4.52799C10.8358 3.48407 9.31008 2.93587 7.74772 3.00015C6.18536 3.06442 4.70982 3.73609 3.63532 4.87212C2.56082 6.00815 1.97226 7.51877 1.99499 9.08228C2.01772 10.6458 2.64993 12.1387 3.757 13.243L10.586 20.071C10.9611 20.4459 11.4697 20.6566 12 20.6566C12.5303 20.6566 13.0389 20.4459 13.414 20.071L20.243 13.243C21.3501 12.1387 21.9823 10.6458 22.005 9.08228C22.0277 7.51877 21.4392 6.00815 20.3647 4.87212C19.2902 3.73609 17.8146 3.06442 16.2523 3.00015C14.6899 2.93587 13.1642 3.48407 12 4.52799Z" fill="#DC304F"/>
</svg>
