<svg width="135" height="101" viewBox="0 0 135 101" fill="none" xmlns="http://www.w3.org/2000/svg">
    <path d="M33.0769 51.5877C38.3123 36.4512 77.5585 17.7696 92.6949 23.005C107.831 28.2403 130.506 49.8215 125.271 64.9579C120.036 80.0943 88.8725 83.0542 73.7361 77.8188C58.5997 72.5835 27.8416 66.7241 33.0769 51.5877Z"
          fill="url(#paint0_linear_1)"/>
    <path d="M86.002 58.7522C77.5367 84.9168 39.2339 79.9029 20.4692 78C2.86612 72.3047 7.08612 49.4764 12.7814 31.8733C18.4768 14.2702 37.3639 4.61698 54.967 10.3123C72.5702 16.0076 140.416 43.2498 86.002 58.7522Z"
          fill="url(#paint1_linear_1)"/>
    <path d="M29.4326 43.8516C29.7783 43.9805 29.9922 44.1416 30.0742 44.335C30.1973 44.6221 30.1797 44.9355 30.0215 45.2754L24.5898 56.5869C24.4316 56.9209 24.1152 57.1699 23.6406 57.334C23.2363 57.4746 22.7998 57.4512 22.3311 57.2637C21.6104 56.9707 21.54 56.2764 22.1201 55.1807L23.5615 52.4297L19.2637 45.46C19.0586 45.126 18.9971 44.7832 19.0791 44.4316C19.126 44.2324 19.3106 44.0566 19.6328 43.9043C19.9844 43.7285 20.3242 43.6758 20.6523 43.7461C21.0625 43.8398 21.3496 44.0215 21.5137 44.291L24.9941 49.9775L27.6836 44.335C27.6895 44.3232 27.707 44.2939 27.7363 44.2471C27.9297 44.0068 28.1787 43.8457 28.4834 43.7637C28.7588 43.6875 29.0752 43.7168 29.4326 43.8516ZM41.834 49.3184C41.8516 48.2754 41.6055 47.4961 41.0957 46.9805C40.5859 46.459 39.7803 46.1631 38.6787 46.0928C37.4658 46.0166 36.4111 46.377 35.5147 47.1738C34.1494 48.3926 33.4668 49.9424 33.4668 51.8232C33.4668 52.8076 33.7598 53.5811 34.3457 54.1436C35.043 54.8115 35.9981 55.1455 37.2109 55.1455C38.3652 55.1455 39.2647 54.7852 39.9092 54.0645C41.1631 52.6699 41.8047 51.0879 41.834 49.3184ZM33.2559 45.8379C34.5742 44.4258 36.3584 43.7314 38.6084 43.7549C40.5244 43.7725 41.9424 44.2559 42.8623 45.2051C43.7647 46.1309 44.2158 47.502 44.2158 49.3184C44.21 51.7559 43.5156 53.7744 42.1328 55.374C40.8789 56.8213 39.2383 57.5449 37.2109 57.5449C35.1367 57.5449 33.4932 56.8945 32.2803 55.5938C31.4307 54.6797 31.0029 53.4287 30.9971 51.8408C31.0029 49.4443 31.7559 47.4434 33.2559 45.8379ZM55.0439 44.3789C55.2607 44.0625 55.5772 43.9072 55.9932 43.9131C56.4443 43.9189 56.7783 44.0977 56.9951 44.4492C57.2061 44.8008 57.3027 45.2607 57.2852 45.8291L57.1709 50.1006C57.1064 52.5908 56.6348 54.3926 55.7559 55.5059C54.7773 56.7422 53.2715 57.3574 51.2383 57.3516C49.4805 57.3457 48.0977 56.71 47.0898 55.4443C46.0586 54.1436 45.5635 52.3037 45.6045 49.9248L45.6748 45.917C45.6807 45.5947 45.7041 45.3223 45.7451 45.0996C45.792 44.8535 45.8652 44.6309 45.9648 44.4316C46.0703 44.2324 46.2109 44.0771 46.3867 43.9658C46.5625 43.8545 46.7734 43.7988 47.0195 43.7988C47.3301 43.7988 47.585 43.8896 47.7842 44.0713C47.9893 44.2471 48.1299 44.4727 48.2061 44.748C48.2881 45.0352 48.3291 45.3545 48.3291 45.7061L48.2588 49.8018C48.2588 49.8896 48.2588 50.0127 48.2588 50.1709C48.2822 51.8408 48.5371 53.0127 49.0234 53.6865C49.6445 54.5596 50.3945 54.9902 51.2734 54.9785C52.4043 54.9609 53.2539 54.5303 53.8223 53.6865C54.3027 52.9775 54.5635 51.7148 54.6045 49.8984L54.6924 45.627C54.7041 45.123 54.8213 44.707 55.0439 44.3789ZM69.3174 52.8779L69.5547 44.291C69.5606 44.0742 69.6807 43.8896 69.915 43.7373C70.1318 43.5967 70.416 43.5264 70.7676 43.5264C71.1543 43.5264 71.4648 43.5996 71.6992 43.7461C71.9336 43.8926 72.0479 44.0977 72.042 44.3613L71.7695 56.2178C71.7637 56.499 71.6377 56.7188 71.3916 56.877C71.1455 57.0293 70.8203 57.1025 70.416 57.0967C69.8652 57.0791 69.4873 56.9561 69.2822 56.7275L61.4336 47.9033L61.2402 56.4902C61.2344 56.7598 61.0996 56.9766 60.8359 57.1406C60.5898 57.2988 60.2705 57.375 59.8779 57.3691C59.4971 57.3633 59.2129 57.2842 59.0254 57.1318C58.8262 56.9678 58.7295 56.7422 58.7354 56.4551L59.0342 44.5635C59.04 44.335 59.1514 44.1504 59.3682 44.0098C59.585 43.875 59.8662 43.8047 60.2119 43.7988C60.9092 43.7871 61.3691 43.9102 61.5918 44.168L69.3174 52.8779ZM78.2471 54.8115C79.3311 54.8701 80.2422 54.6211 80.9805 54.0645C81.5664 53.625 81.9473 53.0303 82.1231 52.2803L79.4512 52.3066C78.9648 52.3125 78.5723 52.2012 78.2734 51.9727C77.9746 51.7441 77.8164 51.4219 77.7988 51.0059C77.7871 50.5898 77.9512 50.2734 78.291 50.0566C78.625 49.8457 79.0645 49.7373 79.6094 49.7314L83.8721 49.6611C83.9189 49.6611 83.9688 49.6641 84.0215 49.6699C84.3555 49.6934 84.6104 49.8223 84.7861 50.0566C84.9678 50.291 85.0439 50.584 85.0147 50.9355C84.8389 53.2676 84.1416 54.9316 82.9229 55.9277C81.6748 56.9824 80.1133 57.4834 78.2383 57.4307C76.5508 57.3838 75.2324 56.751 74.2832 55.5322C73.3691 54.3604 72.915 52.8193 72.9209 50.9092C72.9209 49.1338 73.3867 47.5752 74.3184 46.2334C75.2793 44.8506 76.6211 44.0186 78.3438 43.7373C80.084 43.4736 81.5225 43.6523 82.6592 44.2734C83.1982 44.5664 83.6318 44.877 83.96 45.2051C84.2705 45.5098 84.4727 45.8291 84.5664 46.1631C84.666 46.4736 84.6777 46.7725 84.6016 47.0596C84.5254 47.3467 84.3613 47.5781 84.1094 47.7539C83.541 48.1582 82.8086 47.9268 81.9121 47.0596C81.4023 46.5674 80.6846 46.3037 79.7588 46.2686C79.2022 46.2451 78.5957 46.3887 77.9395 46.6992C77.2422 47.0215 76.6856 47.5371 76.2695 48.2461C75.7715 49.0898 75.5254 49.9102 75.5313 50.707C75.5313 52.1016 75.792 53.1064 76.3135 53.7217C76.8994 54.4072 77.5439 54.7705 78.2471 54.8115ZM87.5459 43.7812C87.6104 43.7754 87.6748 43.7695 87.7393 43.7637L94.3047 43.7285C94.791 43.7285 95.1836 43.8398 95.4824 44.0625C95.7813 44.2852 95.9365 44.6045 95.9482 45.0205C95.96 45.3955 95.8164 45.6768 95.5176 45.8643C95.2188 46.0459 94.835 46.1367 94.3662 46.1367C92.1865 46.1484 90.2412 46.1602 88.5303 46.1719L88.46 48.4219L93.2676 48.3955C93.7949 48.3955 94.208 48.5068 94.5068 48.7295C94.8057 48.9463 94.9609 49.2627 94.9727 49.6787C94.9844 50.0479 94.8438 50.3262 94.5508 50.5137C94.2461 50.707 93.8418 50.8037 93.3379 50.8037L88.3984 50.8213L88.2754 54.9434L93.7598 54.917C94.2461 54.917 94.6387 55.0254 94.9375 55.2422C95.2363 55.4648 95.3916 55.7842 95.4033 56.2002C95.415 56.5752 95.2715 56.8535 94.9727 57.0352C94.6738 57.2227 94.29 57.3193 93.8213 57.3252L87.2031 57.3516C87.127 57.3516 87.0508 57.3486 86.9746 57.3428H86.8604C86.4971 57.3369 86.2129 57.2197 86.0078 56.9912C85.8086 56.7744 85.7148 56.4902 85.7266 56.1387L86.0166 44.8096C86.0225 44.4873 86.1338 44.2324 86.3506 44.0449C86.5732 43.8574 86.8604 43.7607 87.2119 43.7549C87.335 43.7607 87.4463 43.7695 87.5459 43.7812ZM98.7959 43.7812C98.8604 43.7754 98.9248 43.7695 98.9893 43.7637L105.555 43.7285C106.041 43.7285 106.434 43.8398 106.732 44.0625C107.031 44.2852 107.187 44.6045 107.198 45.0205C107.21 45.3955 107.066 45.6768 106.768 45.8643C106.469 46.0459 106.085 46.1367 105.616 46.1367C103.437 46.1484 101.491 46.1602 99.7803 46.1719L99.71 48.4219L104.518 48.3955C105.045 48.3955 105.458 48.5068 105.757 48.7295C106.056 48.9463 106.211 49.2627 106.223 49.6787C106.234 50.0479 106.094 50.3262 105.801 50.5137C105.496 50.707 105.092 50.8037 104.588 50.8037L99.6484 50.8213L99.5254 54.9434L105.01 54.917C105.496 54.917 105.889 55.0254 106.188 55.2422C106.486 55.4648 106.642 55.7842 106.653 56.2002C106.665 56.5752 106.521 56.8535 106.223 57.0352C105.924 57.2227 105.54 57.3193 105.071 57.3252L98.4531 57.3516C98.377 57.3516 98.3008 57.3486 98.2246 57.3428H98.1104C97.7471 57.3369 97.4629 57.2197 97.2578 56.9912C97.0586 56.7744 96.9648 56.4902 96.9766 56.1387L97.2666 44.8096C97.2725 44.4873 97.3838 44.2324 97.6006 44.0449C97.8232 43.8574 98.1104 43.7607 98.4619 43.7549C98.585 43.7607 98.6963 43.7695 98.7959 43.7812ZM109.87 43.6318C110.257 43.6318 110.579 43.708 110.837 43.8604C111.101 44.0127 111.229 44.2178 111.224 44.4756L111.109 49.1162L115.539 44.2207C115.744 43.9922 116.081 43.8633 116.55 43.834C116.884 43.8164 117.2 43.9131 117.499 44.124C117.78 44.3174 117.924 44.5283 117.93 44.7568C117.936 45.249 117.801 45.6387 117.525 45.9258L112.858 50.8213L117.719 54.9082C117.783 54.9609 117.842 55.0225 117.895 55.0928C118.141 55.4092 118.281 55.7607 118.316 56.1475C118.334 56.3584 118.226 56.5518 117.991 56.7275C117.698 56.9268 117.382 57.0176 117.042 57C116.62 56.9766 116.283 56.8564 116.031 56.6396L111.048 52.377L110.907 56.6045C110.896 56.874 110.755 57.0967 110.485 57.2725C110.239 57.4307 109.917 57.5068 109.519 57.501C109.138 57.4951 108.854 57.416 108.666 57.2637C108.467 57.0996 108.373 56.8682 108.385 56.5693L108.675 44.4141C108.681 44.1797 108.795 43.9922 109.018 43.8516C109.234 43.7109 109.519 43.6377 109.87 43.6318Z"
          fill="white"/>
    <defs>
        <linearGradient id="paint0_linear_1" x1="72.3628" y1="77.9653" x2="91.5136" y2="22.5964"
                        gradientUnits="userSpaceOnUse">
            <stop stop-color="#EF5B5B"/>
            <stop offset="1" stop-color="#FBCB84" stop-opacity="0.39"/>
        </linearGradient>
        <linearGradient id="paint1_linear_1" x1="32.9514" y1="15.2939" x2="69.9514" y2="75.794"
                        gradientUnits="userSpaceOnUse">
            <stop stop-color="#F36A76"/>
            <stop offset="1" stop-color="#FBCB84" stop-opacity="0.85"/>
        </linearGradient>
    </defs>
</svg>
