<svg width="21" height="21" viewBox="0 0 21 21" fill="none" xmlns="http://www.w3.org/2000/svg">
<path fill-rule="evenodd" clip-rule="evenodd" d="M6.5 2H14.5C15.6046 2 16.5 3.08731 16.5 4.42857V16.5714C16.5 17.9127 15.6046 19 14.5 19H6.5C5.39543 19 4.5 17.9127 4.5 16.5714V4.42857C4.5 3.08731 5.39543 2 6.5 2Z" stroke="white" stroke-linecap="round" stroke-linejoin="round"/>
<path d="M14.2022 19L10.5572 16.6343C9.90639 16.2118 9.5 15.3885 9.5 14.4924V6.50756C9.5 5.61145 9.90639 4.78816 10.5572 4.36574L14.2022 2" stroke="white" stroke-linecap="round" stroke-linejoin="round"/>
<path d="M11.5 11.7143C12.0523 11.7143 12.5 11.1706 12.5 10.5C12.5 9.82936 12.0523 9.28571 11.5 9.28571C10.9477 9.28571 10.5 9.82936 10.5 10.5C10.5 11.1706 10.9477 11.7143 11.5 11.7143Z" fill="white"/>
</svg>
