<svg width="118" height="65" viewBox="0 0 118 65" fill="none" xmlns="http://www.w3.org/2000/svg">
<g filter="url(#filter0_dd)">
<path fill-rule="evenodd" clip-rule="evenodd" d="M22.9951 23.6769C21.9996 8.49998 39.5 2 50.7202 13.6049C60.1424 5.82851 70.2002 7.49862 78.6675 17.1416C83.8205 17.9172 96.1707 18.4296 100.719 30.2114C120.614 31.2426 110.187 58.3344 93.9147 48.7431C90.0056 50.7388 84.8188 51.5856 79.2936 50.8275C77.9893 50.6648 76.7202 50.3843 75.4828 50.0457C70.1591 52.83 63.0385 54.0474 55.4154 53.0223C50.3422 52.3493 45.721 50.7441 41.8748 48.5538C37.914 51.983 32.1647 53.1874 26.7063 51.236C24.4944 50.4539 22.5638 49.2386 20.9646 47.7127C18.7664 48.7268 16.081 49.2648 13.2364 49.0757C1.68014 48.6318 5.43612 30.0805 17.0726 30.5274C17.0726 30.5274 16.5435 23.4291 22.9951 23.6769Z" fill="url(#paint0_linear)"/>
</g>
<defs>
<filter id="filter0_dd" x="0.705078" y="0.610107" width="116.494" height="63.9854" filterUnits="userSpaceOnUse" color-interpolation-filters="sRGB">
<feFlood flood-opacity="0" result="BackgroundImageFix"/>
<feColorMatrix in="SourceAlpha" type="matrix" values="0 0 0 0 0 0 0 0 0 0 0 0 0 0 0 0 0 0 127 0"/>
<feOffset dx="-1" dy="-1"/>
<feGaussianBlur stdDeviation="2"/>
<feColorMatrix type="matrix" values="0 0 0 0 0.999805 0 0 0 0 0.999805 0 0 0 0 0.999805 0 0 0 0.3 0"/>
<feBlend mode="normal" in2="BackgroundImageFix" result="effect1_dropShadow"/>
<feColorMatrix in="SourceAlpha" type="matrix" values="0 0 0 0 0 0 0 0 0 0 0 0 0 0 0 0 0 0 127 0"/>
<feOffset dy="4"/>
<feGaussianBlur stdDeviation="2"/>
<feColorMatrix type="matrix" values="0 0 0 0 0 0 0 0 0 0.443137 0 0 0 0 0.737255 0 0 0 0.15 0"/>
<feBlend mode="normal" in2="effect1_dropShadow" result="effect2_dropShadow"/>
<feBlend mode="normal" in="SourceGraphic" in2="effect2_dropShadow" result="shape"/>
</filter>
<linearGradient id="paint0_linear" x1="60.7677" y1="7.60144" x2="59" y2="184.5" gradientUnits="userSpaceOnUse">
<stop stop-color="white"/>
<stop offset="1" stop-color="white" stop-opacity="0"/>
</linearGradient>
</defs>
</svg>
